<?xml version="1.0" encoding="utf-8" ?>
<svg baseProfile="full" height="100%" version="1.1" width="100%" xmlns="http://www.w3.org/2000/svg" xmlns:ev="http://www.w3.org/2001/xml-events" xmlns:xlink="http://www.w3.org/1999/xlink"><defs /><path d="M 450,200 C 450,125 550,100 600,100 S 750,125 750,200 S 650,250 600,250 S 450,275 450,200" fill="black" stroke="black" stroke-width="10" /><path d="M 487.5,190 C 487.5,133.75 562.5,115.0 600,115.0 S 712.5,133.75 712.5,190 S 637.5,227.5 600,227.5 S 487.5,246.25 487.5,190" fill="white" stroke="white" stroke-width="5" /><path d="M 50,200 C 50,150 150,125 200,125 S 350,150 350,200 S 350,225 200,225 S 50,250 50,200" fill="black" stroke="black" stroke-width="10" /><path d="M 350,500 C 350,450 350,425 500,425 S 650,450 650,500 S 650,525 500,525 S 350,550 350,500" fill="black" stroke="black" stroke-width="10" /></svg>