<?xml version="1.0" encoding="utf-8" ?>
<svg baseProfile="full" height="100%" version="1.1" width="100%" xmlns="http://www.w3.org/2000/svg" xmlns:ev="http://www.w3.org/2001/xml-events" xmlns:xlink="http://www.w3.org/1999/xlink"><defs /><path d="M 100,100 C 125,125 125,175 100,200" fill="none" stroke="black" stroke-width="5" /><circle cx="100" cy="100" fill="red" r="5" /><circle cx="100" cy="200" fill="red" r="5" /><line stroke="blue" stroke-width="3" x1="100" x2="125" y1="100" y2="125" /><line stroke="blue" stroke-width="3" x1="125" x2="100" y1="175" y2="200" /><path d="M 100,125 C 112.5,137.5 112.5,162.5 100,175" fill="none" stroke="black" stroke-width="5" /><circle cx="100" cy="125" fill="red" r="5" /><circle cx="100" cy="175" fill="red" r="5" /><line stroke="blue" stroke-width="3" x1="100" x2="112.5" y1="125" y2="137.5" /><line stroke="blue" stroke-width="3" x1="112.5" x2="100" y1="162.5" y2="175" /><path d="M 200,100 C 250,150 250,150 200,200" fill="none" stroke="black" stroke-width="5" /><circle cx="200" cy="100" fill="red" r="5" /><circle cx="200" cy="200" fill="red" r="5" /><line stroke="blue" stroke-width="3" x1="200" x2="250" y1="100" y2="150" /><line stroke="blue" stroke-width="3" x1="250" x2="200" y1="150" y2="200" /><path d="M 300,100 C 325,125 350,150 300,200" fill="none" stroke="black" stroke-width="5" /><circle cx="300" cy="100" fill="red" r="5" /><circle cx="300" cy="200" fill="red" r="5" /><line stroke="blue" stroke-width="3" x1="300" x2="325" y1="100" y2="125" /><line stroke="blue" stroke-width="3" x1="350" x2="300" y1="150" y2="200" /><path d="M 400,100 C 425,150 450,125 400,200" fill="none" stroke="black" stroke-width="5" /><circle cx="400" cy="100" fill="red" r="5" /><circle cx="400" cy="200" fill="red" r="5" /><line stroke="blue" stroke-width="3" x1="400" x2="425" y1="100" y2="150" /><line stroke="blue" stroke-width="3" x1="450" x2="400" y1="125" y2="200" /><path d="M 100,300 C 125,325 125,375 100,400" fill="none" stroke="black" stroke-width="5" /><circle cx="100" cy="300" fill="red" r="5" /><circle cx="100" cy="400" fill="red" r="5" /><line stroke="blue" stroke-width="3" x1="100" x2="125" y1="300" y2="325" /><line stroke="blue" stroke-width="3" x1="125" x2="100" y1="375" y2="400" /><path d="M 200,300 C 175,275 225,375 200,400" fill="none" stroke="black" stroke-width="5" /><circle cx="200" cy="300" fill="red" r="5" /><circle cx="200" cy="400" fill="red" r="5" /><line stroke="blue" stroke-width="3" x1="200" x2="175" y1="300" y2="275" /><line stroke="blue" stroke-width="3" x1="225" x2="200" y1="375" y2="400" /><path d="M 300,300 C 250,250 250,450 300,400" fill="none" stroke="black" stroke-width="5" /><circle cx="300" cy="300" fill="red" r="5" /><circle cx="300" cy="400" fill="red" r="5" /><line stroke="blue" stroke-width="3" x1="300" x2="250" y1="300" y2="250" /><line stroke="blue" stroke-width="3" x1="250" x2="300" y1="450" y2="400" /><path d="M 100,600 C 125,600 200,525 200,500 C 200,525 275,600 300,600" fill="none" stroke="black" stroke-width="5" /><circle cx="100" cy="600" fill="red" r="5" /><circle cx="200" cy="500" fill="red" r="5" /><circle cx="300" cy="600" fill="red" r="5" /><line stroke="blue" stroke-width="3" x1="100" x2="125" y1="600" y2="600" /><line stroke="blue" stroke-width="3" x1="200" x2="200" y1="525" y2="500" /><line stroke="green" stroke-width="3" x1="200" x2="200" y1="525" y2="500" /><line stroke="green" stroke-width="3" x1="275" x2="300" y1="600" y2="600" /><path d="M 400,600 C 450,600 500,550 500,500 C 500,550 550,600 600,600" fill="none" stroke="black" stroke-width="5" /><circle cx="400" cy="600" fill="red" r="5" /><circle cx="500" cy="500" fill="red" r="5" /><circle cx="600" cy="600" fill="red" r="5" /><line stroke="blue" stroke-width="3" x1="400" x2="450" y1="600" y2="600" /><line stroke="blue" stroke-width="3" x1="500" x2="500" y1="550" y2="500" /><line stroke="green" stroke-width="3" x1="500" x2="500" y1="550" y2="500" /><line stroke="green" stroke-width="3" x1="550" x2="600" y1="600" y2="600" /><path d="M 700,600 C 750,575 750,575 800,550 C 800,525 850,500 900,500" fill="none" stroke="black" stroke-width="5" /><circle cx="700" cy="600" fill="red" r="5" /><circle cx="800" cy="550" fill="red" r="5" /><circle cx="900" cy="500" fill="red" r="5" /><line stroke="blue" stroke-width="3" x1="700" x2="750" y1="600" y2="575" /><line stroke="blue" stroke-width="3" x1="750" x2="800" y1="575" y2="550" /><line stroke="green" stroke-width="3" x1="800" x2="800" y1="525" y2="550" /><line stroke="green" stroke-width="3" x1="850" x2="900" y1="500" y2="500" /><path d="M 1100,600 C 1050,600 1000,600 1000,575 C 1000,500 1050,500 1100,500" fill="none" stroke="black" stroke-width="5" /><circle cx="1100" cy="600" fill="red" r="5" /><circle cx="1000" cy="575" fill="red" r="5" /><circle cx="1100" cy="500" fill="red" r="5" /><line stroke="blue" stroke-width="3" x1="1100" x2="1050" y1="600" y2="600" /><line stroke="blue" stroke-width="3" x1="1000" x2="1000" y1="600" y2="575" /><line stroke="green" stroke-width="3" x1="1000" x2="1000" y1="500" y2="575" /><line stroke="green" stroke-width="3" x1="1050" x2="1100" y1="500" y2="500" /><path d="M 600,400 C 500,400 400,425 400,375 C 400,300 500,300 600,300" fill="none" stroke="black" stroke-width="5" /><circle cx="600" cy="400" fill="red" r="5" /><circle cx="400" cy="375" fill="red" r="5" /><circle cx="600" cy="300" fill="red" r="5" /><line stroke="blue" stroke-width="3" x1="600" x2="500" y1="400" y2="400" /><line stroke="blue" stroke-width="3" x1="400" x2="400" y1="425" y2="375" /><line stroke="green" stroke-width="3" x1="400" x2="400" y1="300" y2="375" /><line stroke="green" stroke-width="3" x1="500" x2="600" y1="300" y2="300" /></svg>