<?xml version="1.0" encoding="utf-8" ?>
<svg baseProfile="full" height="100%" version="1.1" width="100%" xmlns="http://www.w3.org/2000/svg" xmlns:ev="http://www.w3.org/2001/xml-events" xmlns:xlink="http://www.w3.org/1999/xlink"><defs /><path d="M 365.0,493 C 365.0,448.0 365.0,436.75 500,436.75 S 635.0,448.0 635.0,493 S 635.0,511.75 500,511.75 S 365.0,538.0 365.0,493" fill="black" stroke="black" stroke-width="1" /><path d="M 387.5,485 C 387.5,447.5 387.5,447.5 500,447.5 S 612.5,447.5 612.5,485 S 612.5,497.5 500,497.5 S 387.5,522.5 387.5,485" fill="white" stroke="white" stroke-width="1" /><path d="M 250,500 C 350,475 350,475 360,450 C 365,445 350,425 500,425" fill="none" stroke="red" stroke-width="10" /><path d="M 250,500 C 350,500 350,500 350,515 C 350,550 350,525 500,525" fill="none" stroke="red" stroke-width="10" /><path d="M 750,500 C 650,475 650,475 640,450 C 635,445 650,425 500,425" fill="none" stroke="red" stroke-width="10" /><path d="M 750,500 C 650,500 650,500 650,515 C 650,550 650,525 500,525" fill="none" stroke="red" stroke-width="10" /></svg>